# xmcd
#
# Track frame offsets: 
#        150
#        20717
#        36289
#        55013
#        68221
#        90387
#        107811
#        132493
#        151204
#        169012
#
# Disc length: 2431 seconds
#
# Revision: 0
# Processed by: cddbd v1.5.2PL0 Copyright (c) Steve Scherf et al.
# Submitted via: ExactAudioCopy v0.95b4
#
DISCID=7f097d0a
DTITLE=Bruce Willis - If It Don't Kill You, It Just Makes You Stronger
DYEAR=1989
DGENRE=Blues
TTITLE0=Pep Talk
TTITLE1=Crazy Mixed-Up World
TTITLE2=Turn It Up (A Little Louder)
TTITLE3=Soul Shake
TTITLE4=Here Comes Trouble Again
TTITLE5=Save the Last Dance For Me
TTITLE6=Blues For Mr. D
TTITLE7=Tenth Avenue Tango
TTITLE8=Can't Leave Her Alone
TTITLE9=Barnyard Boogie
EXTD=
EXTT0=
EXTT1=
EXTT2=
EXTT3=
EXTT4=
EXTT5=
EXTT6=
EXTT7=
EXTT8=
EXTT9=
PLAYORDER=
